<?xml version="1.0" encoding="iso-8859-1"?>
<!-- Generator: Adobe Illustrator 19.0.0, SVG Export Plug-In . SVG Version: 6.00 Build 0)  -->
<svg version="1.1" id="Capa_1" xmlns="http://www.w3.org/2000/svg" xmlns:xlink="http://www.w3.org/1999/xlink" x="0px" y="0px"
	 viewBox="0 0 60 60" style="enable-background:new 0 0 60 60;" xml:space="preserve">
<g>
	<path d="M41.257,0H18.743C15.025,0,12,3.025,12,6.743v46.514C12,56.975,15.025,60,18.743,60h22.514C44.975,60,48,56.975,48,53.257
		V6.743C48,3.025,44.975,0,41.257,0z M46,53.257C46,55.872,43.872,58,41.257,58H18.743C16.128,58,14,55.872,14,53.257V6.743
		C14,4.128,16.128,2,18.743,2h22.514C43.872,2,46,4.128,46,6.743V53.257z"/>
	<path d="M27,5h6c0.553,0,1-0.447,1-1s-0.447-1-1-1h-6c-0.553,0-1,0.447-1,1S26.447,5,27,5z"/>
	<path d="M41,5h1c0.553,0,1-0.447,1-1s-0.447-1-1-1h-1c-0.553,0-1,0.447-1,1S40.447,5,41,5z"/>
	<path d="M37,5h1c0.553,0,1-0.447,1-1s-0.447-1-1-1h-1c-0.553,0-1,0.447-1,1S36.447,5,37,5z"/>
	<path d="M32.5,52h-5c-1.379,0-2.5,1.121-2.5,2.5s1.121,2.5,2.5,2.5h5c1.379,0,2.5-1.121,2.5-2.5S33.879,52,32.5,52z M32.5,55h-5
		c-0.271,0-0.5-0.229-0.5-0.5s0.229-0.5,0.5-0.5h5c0.271,0,0.5,0.229,0.5,0.5S32.771,55,32.5,55z"/>
	<path d="M15,6v45h30V6H15z M27.293,9.293c0.391-0.391,1.023-0.391,1.414,0s0.391,1.023,0,1.414l-3,3C25.512,13.902,25.256,14,25,14
		s-0.512-0.098-0.707-0.293c-0.391-0.391-0.391-1.023,0-1.414L27.293,9.293z M18.293,13.293l4-4c0.391-0.391,1.023-0.391,1.414,0
		s0.391,1.023,0,1.414l-4,4C19.512,14.902,19.256,15,19,15s-0.512-0.098-0.707-0.293C17.902,14.316,17.902,13.684,18.293,13.293z
		 M24,15c0,0.26-0.11,0.52-0.29,0.71C23.52,15.89,23.26,16,23,16s-0.521-0.11-0.71-0.29C22.109,15.52,22,15.26,22,15
		c0-0.271,0.109-0.521,0.29-0.71c0.37-0.37,1.04-0.37,1.42,0C23.89,14.479,24,14.74,24,15z M18.293,18.293l2-2
		c0.391-0.391,1.023-0.391,1.414,0s0.391,1.023,0,1.414l-2,2C19.512,19.902,19.256,20,19,20s-0.512-0.098-0.707-0.293
		C17.902,19.316,17.902,18.684,18.293,18.293z M28.707,15.707l-9,9C19.512,24.902,19.256,25,19,25s-0.512-0.098-0.707-0.293
		c-0.391-0.391-0.391-1.023,0-1.414l9-9c0.391-0.391,1.023-0.391,1.414,0S29.098,15.316,28.707,15.707z M30.71,13.71
		C30.52,13.89,30.26,14,30,14s-0.521-0.11-0.71-0.29C29.109,13.52,29,13.26,29,13s0.109-0.521,0.29-0.71c0.37-0.37,1.05-0.37,1.42,0
		C30.89,12.479,31,12.74,31,13S30.89,13.52,30.71,13.71z M33.707,10.707l-1,1C32.512,11.902,32.256,12,32,12
		s-0.512-0.098-0.707-0.293c-0.391-0.391-0.391-1.023,0-1.414l1-1c0.391-0.391,1.023-0.391,1.414,0S34.098,10.316,33.707,10.707z"/>
</g>
<g>
</g>
<g>
</g>
<g>
</g>
<g>
</g>
<g>
</g>
<g>
</g>
<g>
</g>
<g>
</g>
<g>
</g>
<g>
</g>
<g>
</g>
<g>
</g>
<g>
</g>
<g>
</g>
<g>
</g>
</svg>
